<svg width="14" height="14" viewBox="0 0 14 14" fill="none" xmlns="http://www.w3.org/2000/svg">
<path d="M0.639864 13.3599C0.789863 13.5099 0.979863 13.5799 1.16986 13.5799C1.35986 13.5799 1.55986 13.5099 1.69986 13.3599L6.99986 8.05986L12.2999 13.3599C12.4499 13.5099 12.6399 13.5799 12.8299 13.5799C13.0199 13.5799 13.2099 13.5099 13.3599 13.3599C13.6499 13.0699 13.6499 12.5899 13.3599 12.2999L8.05986 6.99986L13.3599 1.69986C13.6499 1.40986 13.6499 0.929864 13.3599 0.639864C13.0699 0.349863 12.5899 0.349863 12.2999 0.639864L6.99986 5.93986L1.69986 0.639864C1.40986 0.349863 0.929864 0.349863 0.639864 0.639864C0.349863 0.929864 0.349863 1.40986 0.639864 1.69986L5.93986 6.99986L0.639864 12.2999C0.349863 12.5899 0.349863 13.0699 0.639864 13.3599Z" fill="#FF4E6B"/>
</svg>
